<svg width="85" height="83" viewBox="0 0 85 83" fill="none" xmlns="http://www.w3.org/2000/svg">
<path d="M41.3163 82.4123C33.6774 82.4123 26.6995 80.6127 20.3827 77.0136C14.0659 73.3411 9.07123 68.3831 5.39867 62.1398C1.79956 55.8229 0 48.8451 0 41.2062C0 33.5672 1.79956 26.6261 5.39867 20.3827C9.07123 14.0659 14.0659 9.10796 20.3827 5.50884C26.6995 1.83628 33.6774 0 41.3163 0C50.7767 0 58.9371 2.7161 65.7975 8.14831C68.8277 10.5477 68.6407 15.0242 65.8642 17.713V17.713C62.8919 20.5914 58.1626 20.2219 54.7074 17.9458C50.8182 15.3837 46.3912 14.1026 41.4265 14.1026C36.5053 14.1026 32.0247 15.2411 27.9849 17.5181C23.9451 19.7217 20.75 22.8801 18.3995 26.9933C16.1225 31.1066 14.9841 35.8442 14.9841 41.2062C14.9841 46.5681 16.1225 51.3057 18.3995 55.419C20.75 59.5322 23.9451 62.7274 27.9849 65.0044C32.0247 67.2079 36.5053 68.3097 41.4265 68.3097C47.1495 68.3097 52.2264 66.6684 56.6573 63.3858C60.0435 60.8772 64.865 60.4319 67.9235 63.3311V63.3311C70.6831 65.947 70.9886 70.3196 68.1213 72.8169C65.3482 75.2321 62.2893 77.2187 58.9446 78.7765C53.6561 81.2003 47.78 82.4123 41.3163 82.4123Z" fill="#1B4CFF"/>
<path d="M41.2886 22.2912C44.8467 22.2912 48.056 23.1127 50.9039 24.7648H50.9048C53.75 26.371 55.9571 28.6012 57.5191 31.4474L57.8111 31.9845C59.223 34.6902 59.9263 37.6747 59.9263 40.9289C59.9263 44.4423 59.1264 47.628 57.5201 50.4748L57.5211 50.4757C55.959 53.2783 53.7517 55.5072 50.9097 57.1574L50.9048 57.1603C48.0564 58.7683 44.8466 59.5675 41.2886 59.5675C37.6874 59.5675 34.4553 58.7687 31.606 57.1603L31.6002 57.1574C28.7594 55.5079 26.5316 53.281 24.9254 50.4816L24.9205 50.4728C23.3595 47.6263 22.5836 44.4409 22.5836 40.9289C22.5836 37.4603 23.36 34.2978 24.9205 31.4523L24.9234 31.4474L25.232 30.9211C26.7059 28.4981 28.6567 26.5473 31.0797 25.0734L31.606 24.7648C34.4549 23.112 37.6871 22.2912 41.2886 22.2912ZM41.2886 31.4562C39.7766 31.4562 38.3839 31.7914 37.1031 32.4591L36.8482 32.5968C35.5031 33.3535 34.4053 34.4489 33.5543 35.8957C32.7579 37.3251 32.3512 38.9976 32.3511 40.9289C32.3511 42.858 32.7564 44.5545 33.5543 46.0304L33.7164 46.297C34.5432 47.6122 35.5871 48.6189 36.8482 49.3283L37.1031 49.466C38.3839 50.1337 39.7766 50.4689 41.2886 50.4689C42.9013 50.4689 44.3779 50.0877 45.7281 49.3283C47.0708 48.573 48.145 47.481 48.9507 46.0392L49.0963 45.7687C49.7997 44.3966 50.1588 42.7876 50.1588 40.9289C50.1587 38.9932 49.7506 37.3174 48.9507 35.8859C48.1954 34.5341 47.2044 33.4898 45.9771 32.7423L45.7281 32.5968C44.3779 31.8375 42.9012 31.4562 41.2886 31.4562Z" fill="#1B4CFF" stroke="#1B4CFF"/>
<path d="M65.3814 29.5869C66.1078 28.8627 67.2225 28.7118 68.1089 29.1924L68.2945 29.3056L68.3052 29.3125H68.3043L68.4732 29.4384L68.481 29.4433L68.4869 29.4482L68.7877 29.706L68.7906 29.708L69.0826 29.9736C75.0189 35.5268 74.839 45.5752 68.8384 51.2158L68.5435 51.4853C67.6496 52.2791 66.3114 52.2528 65.4498 51.4609L65.2838 51.292C64.4371 50.3385 64.5229 48.8792 65.4761 48.0322L65.6802 47.8457C69.8975 43.8778 69.8153 36.7757 65.7369 33.1738V33.1728L65.5338 33L65.5259 32.9941V32.9931L65.3716 32.8515L65.3629 32.8427C64.5415 32.0085 64.469 30.6718 65.232 29.7509L65.3814 29.5869Z" fill="#1B4CFF" stroke="#1B4CFF" stroke-width="0.5" stroke-linecap="round"/>
<path d="M70.1545 17.9065C71.0374 17.0158 72.399 16.8246 73.4865 17.4055L73.716 17.5412L73.7258 17.5481L73.9377 17.7043L73.9445 17.7092L73.9514 17.7151L74.5803 18.2463L74.5832 18.2493L75.1896 18.7932C87.5109 30.185 87.2059 50.9817 74.6389 62.6516L74.0207 63.2092C72.9213 64.1731 71.2842 64.1298 70.2365 63.1545L70.0353 62.9475C69.0072 61.775 69.1241 59.9906 70.2961 58.9621L70.8019 58.5061C81.2409 48.8081 81.1386 31.4557 70.8742 22.509V22.508L70.3664 22.0813L70.3596 22.0754L70.5275 21.8899L70.3596 22.0744L70.1642 21.8977L70.1555 21.8899L70.3322 21.7131L70.1555 21.8889C69.1452 20.8747 69.0467 19.2402 69.9728 18.1086L70.1545 17.9065Z" fill="#1B4CFF" stroke="#1B4CFF" stroke-width="0.5" stroke-linecap="round"/>
</svg>
