<svg width="270" height="83" viewBox="0 0 270 83" fill="none" xmlns="http://www.w3.org/2000/svg">
<path d="M41.3163 82.4123C33.6774 82.4123 26.6995 80.6127 20.3827 77.0136C14.0659 73.3411 9.07123 68.3831 5.39867 62.1398C1.79956 55.8229 0 48.8451 0 41.2062C0 33.5672 1.79956 26.6261 5.39867 20.3827C9.07123 14.0659 14.0659 9.10796 20.3827 5.50884C26.6995 1.83628 33.6774 0 41.3163 0C50.7767 0 58.9371 2.7161 65.7975 8.14831C68.8277 10.5477 68.6407 15.0242 65.8642 17.713V17.713C62.8919 20.5914 58.1626 20.2219 54.7074 17.9458C50.8182 15.3837 46.3912 14.1026 41.4265 14.1026C36.5053 14.1026 32.0247 15.2411 27.9849 17.5181C23.9451 19.7217 20.75 22.8801 18.3995 26.9933C16.1225 31.1066 14.9841 35.8442 14.9841 41.2062C14.9841 46.5681 16.1225 51.3057 18.3995 55.419C20.75 59.5322 23.9451 62.7274 27.9849 65.0044C32.0247 67.2079 36.5053 68.3097 41.4265 68.3097C47.1495 68.3097 52.2264 66.6684 56.6573 63.3858C60.0435 60.8772 64.865 60.4319 67.9235 63.3311V63.3311C70.6831 65.947 70.9886 70.3196 68.1213 72.8169C65.3482 75.2321 62.2893 77.2187 58.9446 78.7765C53.6561 81.2003 47.78 82.4123 41.3163 82.4123Z" fill="#1B4CFF"/>
<path d="M41.2886 22.2912C44.8467 22.2912 48.056 23.1127 50.9039 24.7648H50.9048C53.75 26.371 55.9571 28.6012 57.5191 31.4474L57.8111 31.9845C59.223 34.6902 59.9263 37.6747 59.9263 40.9289C59.9263 44.4423 59.1264 47.628 57.5201 50.4748L57.5211 50.4757C55.959 53.2783 53.7517 55.5072 50.9097 57.1574L50.9048 57.1603C48.0564 58.7683 44.8466 59.5675 41.2886 59.5675C37.6874 59.5675 34.4553 58.7687 31.606 57.1603L31.6002 57.1574C28.7594 55.5079 26.5316 53.281 24.9254 50.4816L24.9205 50.4728C23.3595 47.6263 22.5836 44.4409 22.5836 40.9289C22.5836 37.4603 23.36 34.2978 24.9205 31.4523L24.9234 31.4474L25.232 30.9211C26.7059 28.4981 28.6567 26.5473 31.0797 25.0734L31.606 24.7648C34.4549 23.112 37.6871 22.2912 41.2886 22.2912ZM41.2886 31.4562C39.7766 31.4562 38.3839 31.7914 37.1031 32.4591L36.8482 32.5968C35.5031 33.3535 34.4053 34.4489 33.5543 35.8957C32.7579 37.3251 32.3512 38.9976 32.3511 40.9289C32.3511 42.858 32.7564 44.5545 33.5543 46.0304L33.7164 46.297C34.5432 47.6122 35.5871 48.6189 36.8482 49.3283L37.1031 49.466C38.3839 50.1337 39.7766 50.4689 41.2886 50.4689C42.9013 50.4689 44.3779 50.0877 45.7281 49.3283C47.0708 48.573 48.145 47.481 48.9507 46.0392L49.0963 45.7687C49.7997 44.3966 50.1588 42.7876 50.1588 40.9289C50.1587 38.9932 49.7506 37.3174 48.9507 35.8859C48.1954 34.5341 47.2044 33.4898 45.9771 32.7423L45.7281 32.5968C44.3779 31.8375 42.9012 31.4562 41.2886 31.4562Z" fill="#1B4CFF" stroke="#1B4CFF"/>
<path d="M65.3814 29.5869C66.1078 28.8627 67.2225 28.7118 68.1089 29.1924L68.2945 29.3056L68.3052 29.3125H68.3043L68.4732 29.4384L68.481 29.4433L68.4869 29.4482L68.7877 29.706L68.7906 29.708L69.0826 29.9736C75.0189 35.5268 74.839 45.5752 68.8384 51.2158L68.5435 51.4853C67.6496 52.2791 66.3114 52.2528 65.4498 51.4609L65.2838 51.292C64.4371 50.3385 64.5229 48.8792 65.4761 48.0322L65.6802 47.8457C69.8975 43.8778 69.8153 36.7757 65.7369 33.1738V33.1728L65.5338 33L65.5259 32.9941V32.9931L65.3716 32.8515L65.3629 32.8427C64.5415 32.0085 64.469 30.6718 65.232 29.7509L65.3814 29.5869Z" fill="#1B4CFF" stroke="#1B4CFF" stroke-width="0.5" stroke-linecap="round"/>
<path d="M70.1545 17.9065C71.0374 17.0158 72.399 16.8246 73.4865 17.4055L73.716 17.5412L73.7258 17.5481L73.9377 17.7043L73.9445 17.7092L73.9514 17.7151L74.5803 18.2463L74.5832 18.2493L75.1896 18.7932C87.5109 30.185 87.2059 50.9817 74.6389 62.6516L74.0207 63.2092C72.9213 64.1731 71.2842 64.1298 70.2365 63.1545L70.0353 62.9475C69.0072 61.775 69.1241 59.9906 70.2961 58.9621L70.8019 58.5061C81.2409 48.8081 81.1386 31.4557 70.8742 22.509V22.508L70.3664 22.0813L70.3596 22.0754L70.5275 21.8899L70.3596 22.0744L70.1642 21.8977L70.1555 21.8899L70.3322 21.7131L70.1555 21.8889C69.1452 20.8747 69.0467 19.2402 69.9728 18.1086L70.1545 17.9065Z" fill="#1B4CFF" stroke="#1B4CFF" stroke-width="0.5" stroke-linecap="round"/>
<path d="M108.018 17.916H130.264V24.188H114.633V32.322H128.696V38.594H114.633V46.728H130.264V53H108.018V17.916ZM137.064 17.916H143.679V31.93H158.428V17.916H165.043V53H158.428V38.202H143.679V53H137.064V17.916ZM189.229 53.784C185.831 53.784 182.728 52.9837 179.919 51.383C177.109 49.7497 174.888 47.5447 173.255 44.768C171.654 41.9587 170.854 38.8553 170.854 35.458C170.854 32.0607 171.654 28.9737 173.255 26.197C174.888 23.3877 177.109 21.1827 179.919 19.582C182.728 17.9487 185.831 17.132 189.229 17.132C194.521 17.132 198.898 19.043 202.361 22.865L197.706 27.373C195.452 24.727 192.642 23.404 189.278 23.404C187.089 23.404 185.096 23.9103 183.3 24.923C181.503 25.903 180.082 27.3077 179.037 29.137C178.024 30.9663 177.518 33.0733 177.518 35.458C177.518 37.8427 178.024 39.9497 179.037 41.779C180.082 43.6083 181.503 45.0293 183.3 46.042C185.096 47.022 187.089 47.512 189.278 47.512C192.969 47.512 196.056 45.9767 198.539 42.906L203.243 47.365C201.511 49.4557 199.453 51.0563 197.069 52.167C194.717 53.245 192.103 53.784 189.229 53.784ZM219.485 53.784C216.904 53.784 214.601 53.2123 212.576 52.069C210.55 50.893 208.966 49.3087 207.823 47.316C206.712 45.2907 206.157 43.0203 206.157 40.505C206.157 38.0223 206.712 35.7683 207.823 33.743C208.966 31.7177 210.55 30.1333 212.576 28.99C214.601 27.814 216.904 27.226 219.485 27.226C222.033 27.226 224.319 27.814 226.345 28.99C228.37 30.1333 229.938 31.7177 231.049 33.743C232.192 35.7683 232.764 38.0223 232.764 40.505C232.764 43.0203 232.192 45.2907 231.049 47.316C229.938 49.3087 228.37 50.893 226.345 52.069C224.319 53.2123 222.033 53.784 219.485 53.784ZM219.485 47.855C220.726 47.855 221.869 47.561 222.915 46.973C223.96 46.385 224.793 45.5357 225.414 44.425C226.034 43.3143 226.345 42.0077 226.345 40.505C226.345 39.035 226.034 37.7447 225.414 36.634C224.793 35.5233 223.96 34.674 222.915 34.086C221.869 33.498 220.726 33.204 219.485 33.204C218.243 33.204 217.1 33.498 216.055 34.086C215.009 34.674 214.16 35.5233 213.507 36.634C212.886 37.7447 212.576 39.035 212.576 40.505C212.576 41.975 212.886 43.2817 213.507 44.425C214.16 45.5357 215.009 46.385 216.055 46.973C217.1 47.561 218.243 47.855 219.485 47.855Z" fill="white"/>
<path d="M108.066 59.692H113.721V61.083H109.522V63.657H113.305V65.035H109.522V67.609H113.721V69H108.066V59.692ZM115.17 62.37H116.535V63.241H116.6C116.791 62.929 117.072 62.6733 117.445 62.474C117.826 62.266 118.229 62.162 118.654 62.162C119.46 62.162 120.071 62.4003 120.487 62.877C120.912 63.345 121.124 63.9863 121.124 64.801V69H119.694V64.996C119.694 64.476 119.564 64.0947 119.304 63.852C119.053 63.6093 118.702 63.488 118.251 63.488C117.93 63.488 117.644 63.579 117.393 63.761C117.142 63.9343 116.947 64.1683 116.808 64.463C116.669 64.7577 116.6 65.074 116.6 65.412V69H115.17V62.37ZM122.736 59.692H124.166V62.227L124.101 63.241H124.166C124.357 62.929 124.639 62.6733 125.011 62.474C125.393 62.266 125.8 62.162 126.233 62.162C127.039 62.162 127.655 62.4003 128.079 62.877C128.504 63.345 128.716 63.9863 128.716 64.801V69H127.286V64.996C127.286 64.4933 127.152 64.1163 126.883 63.865C126.623 63.6137 126.281 63.488 125.856 63.488C125.536 63.488 125.245 63.579 124.985 63.761C124.734 63.943 124.535 64.1857 124.387 64.489C124.24 64.7837 124.166 65.1 124.166 65.438V69H122.736V59.692ZM132.357 69.208C131.881 69.208 131.456 69.117 131.083 68.935C130.711 68.7443 130.42 68.48 130.212 68.142C130.004 67.7953 129.9 67.4053 129.9 66.972C129.9 66.2873 130.156 65.7457 130.667 65.347C131.187 64.9483 131.842 64.749 132.63 64.749C133.02 64.749 133.371 64.788 133.683 64.866C133.995 64.9353 134.242 65.0133 134.424 65.1V64.762C134.424 64.3547 134.273 64.0253 133.969 63.774C133.666 63.514 133.276 63.384 132.799 63.384C132.461 63.384 132.141 63.4577 131.837 63.605C131.543 63.7523 131.304 63.956 131.122 64.216L130.121 63.449C130.416 63.0417 130.797 62.7253 131.265 62.5C131.733 62.2747 132.253 62.162 132.825 62.162C133.787 62.162 134.528 62.4003 135.048 62.877C135.568 63.345 135.828 64.008 135.828 64.866V69H134.424V68.207H134.359C134.169 68.493 133.9 68.7313 133.553 68.922C133.207 69.1127 132.808 69.208 132.357 69.208ZM132.604 68.025C132.951 68.025 133.263 67.9427 133.54 67.778C133.818 67.6133 134.034 67.3923 134.19 67.115C134.346 66.8377 134.424 66.5387 134.424 66.218C134.225 66.1053 133.991 66.0143 133.722 65.945C133.462 65.8757 133.189 65.841 132.903 65.841C132.366 65.841 131.972 65.9493 131.72 66.166C131.469 66.374 131.343 66.647 131.343 66.985C131.343 67.2883 131.46 67.5397 131.694 67.739C131.928 67.9297 132.232 68.025 132.604 68.025ZM137.387 62.37H138.752V63.241H138.817C139.007 62.929 139.289 62.6733 139.662 62.474C140.043 62.266 140.446 62.162 140.871 62.162C141.677 62.162 142.288 62.4003 142.704 62.877C143.128 63.345 143.341 63.9863 143.341 64.801V69H141.911V64.996C141.911 64.476 141.781 64.0947 141.521 63.852C141.269 63.6093 140.918 63.488 140.468 63.488C140.147 63.488 139.861 63.579 139.61 63.761C139.358 63.9343 139.163 64.1683 139.025 64.463C138.886 64.7577 138.817 65.074 138.817 65.412V69H137.387V62.37ZM148.021 69.208C147.362 69.208 146.769 69.0563 146.24 68.753C145.72 68.4497 145.313 68.0337 145.018 67.505C144.732 66.9677 144.589 66.361 144.589 65.685C144.589 65.009 144.732 64.4067 145.018 63.878C145.313 63.3407 145.72 62.9203 146.24 62.617C146.769 62.3137 147.362 62.162 148.021 62.162C148.749 62.162 149.369 62.3267 149.88 62.656C150.391 62.9853 150.755 63.4317 150.972 63.995L149.659 64.541C149.364 63.839 148.805 63.488 147.982 63.488C147.627 63.488 147.297 63.579 146.994 63.761C146.699 63.943 146.461 64.203 146.279 64.541C146.106 64.8703 146.019 65.2517 146.019 65.685C146.019 66.1183 146.106 66.504 146.279 66.842C146.461 67.18 146.699 67.44 146.994 67.622C147.297 67.804 147.627 67.895 147.982 67.895C148.398 67.895 148.753 67.804 149.048 67.622C149.351 67.4313 149.581 67.1627 149.737 66.816L151.024 67.375C150.773 67.9383 150.391 68.3847 149.88 68.714C149.369 69.0433 148.749 69.208 148.021 69.208ZM155.206 69.208C154.556 69.208 153.971 69.0563 153.451 68.753C152.939 68.4497 152.536 68.0337 152.242 67.505C151.956 66.9677 151.813 66.3653 151.813 65.698C151.813 65.0653 151.951 64.4803 152.229 63.943C152.515 63.397 152.909 62.9637 153.412 62.643C153.914 62.3223 154.486 62.162 155.128 62.162C155.795 62.162 156.371 62.3093 156.857 62.604C157.351 62.8987 157.723 63.3017 157.975 63.813C158.235 64.3243 158.365 64.9007 158.365 65.542C158.365 65.6633 158.352 65.815 158.326 65.997H153.243C153.295 66.6123 153.511 67.089 153.893 67.427C154.283 67.7563 154.733 67.921 155.245 67.921C155.652 67.921 156.003 67.83 156.298 67.648C156.601 67.4573 156.844 67.2017 157.026 66.881L158.235 67.453C157.923 67.999 157.515 68.428 157.013 68.74C156.51 69.052 155.908 69.208 155.206 69.208ZM156.909 64.905C156.891 64.671 156.818 64.4413 156.688 64.216C156.558 63.982 156.358 63.787 156.09 63.631C155.83 63.475 155.509 63.397 155.128 63.397C154.668 63.397 154.278 63.5357 153.958 63.813C153.646 64.0817 153.429 64.4457 153.308 64.905H156.909ZM162.564 69.208C161.966 69.208 161.425 69.0563 160.939 68.753C160.454 68.4497 160.068 68.0337 159.782 67.505C159.505 66.9677 159.366 66.361 159.366 65.685C159.366 65.009 159.505 64.4067 159.782 63.878C160.068 63.3407 160.454 62.9203 160.939 62.617C161.425 62.3137 161.966 62.162 162.564 62.162C163.032 62.162 163.453 62.266 163.825 62.474C164.198 62.682 164.48 62.9377 164.67 63.241H164.735L164.67 62.305V59.692H166.1V69H164.735V68.142H164.67C164.48 68.4367 164.198 68.688 163.825 68.896C163.453 69.104 163.032 69.208 162.564 69.208ZM162.772 67.895C163.119 67.895 163.44 67.804 163.734 67.622C164.038 67.44 164.28 67.18 164.462 66.842C164.644 66.504 164.735 66.1183 164.735 65.685C164.735 65.2517 164.644 64.8703 164.462 64.541C164.28 64.203 164.038 63.943 163.734 63.761C163.44 63.579 163.119 63.488 162.772 63.488C162.426 63.488 162.101 63.579 161.797 63.761C161.494 63.943 161.251 64.203 161.069 64.541C160.887 64.8703 160.796 65.2517 160.796 65.685C160.796 66.1183 160.887 66.504 161.069 66.842C161.251 67.18 161.494 67.44 161.797 67.622C162.101 67.804 162.426 67.895 162.772 67.895ZM171.047 59.692H172.503V63.553H176.819V59.692H178.262V69H176.819V64.931H172.503V69H171.047V59.692ZM182.448 69.208C181.642 69.208 181.027 68.9697 180.602 68.493C180.186 68.0077 179.978 67.336 179.978 66.478V62.37H181.408V66.283C181.408 66.8203 181.534 67.2233 181.785 67.492C182.045 67.7607 182.383 67.895 182.799 67.895C183.137 67.895 183.436 67.8083 183.696 67.635C183.956 67.453 184.156 67.2147 184.294 66.92C184.433 66.6253 184.502 66.309 184.502 65.971V62.37H185.932V69H184.58V68.142H184.502C184.32 68.454 184.039 68.7097 183.657 68.909C183.276 69.1083 182.873 69.208 182.448 69.208ZM188.401 63.631H187.192V62.37H188.401V61.85C188.401 61.1567 188.618 60.6063 189.051 60.199C189.484 59.7917 190.039 59.588 190.715 59.588C191.053 59.588 191.339 59.627 191.573 59.705V61.096C191.556 61.0873 191.473 61.057 191.326 61.005C191.187 60.953 191.005 60.927 190.78 60.927C190.511 60.927 190.286 61.018 190.104 61.2C189.922 61.382 189.831 61.6333 189.831 61.954V62.37H192.704V61.85C192.704 61.1567 192.916 60.6063 193.341 60.199C193.774 59.7917 194.329 59.588 195.005 59.588C195.404 59.588 195.746 59.6357 196.032 59.731V61.135C195.876 61.0743 195.729 61.0267 195.59 60.992C195.451 60.9487 195.295 60.927 195.122 60.927C194.845 60.927 194.611 61.018 194.42 61.2C194.229 61.382 194.134 61.6333 194.134 61.954V62.37H195.798V63.631H194.134V69H192.704V63.631H189.831V69H188.401V63.631ZM196.991 62.37H198.356V63.241H198.421C198.621 62.9203 198.902 62.6603 199.266 62.461C199.63 62.2617 200.02 62.162 200.436 62.162C200.913 62.162 201.329 62.2747 201.684 62.5C202.04 62.7167 202.295 63.007 202.451 63.371C202.677 63.007 202.976 62.7167 203.348 62.5C203.73 62.2747 204.176 62.162 204.687 62.162C205.45 62.162 206.026 62.396 206.416 62.864C206.815 63.3233 207.014 63.9517 207.014 64.749V69H205.584V64.996C205.584 63.9907 205.155 63.488 204.297 63.488C203.838 63.488 203.461 63.6743 203.166 64.047C202.872 64.4197 202.724 64.879 202.724 65.425V69H201.294V64.996C201.294 63.9907 200.852 63.488 199.968 63.488C199.518 63.488 199.145 63.6743 198.85 64.047C198.564 64.4197 198.421 64.879 198.421 65.425V69H196.991V62.37ZM210.662 69.208C210.185 69.208 209.761 69.117 209.388 68.935C209.015 68.7443 208.725 68.48 208.517 68.142C208.309 67.7953 208.205 67.4053 208.205 66.972C208.205 66.2873 208.461 65.7457 208.972 65.347C209.492 64.9483 210.146 64.749 210.935 64.749C211.325 64.749 211.676 64.788 211.988 64.866C212.3 64.9353 212.547 65.0133 212.729 65.1V64.762C212.729 64.3547 212.577 64.0253 212.274 63.774C211.971 63.514 211.581 63.384 211.104 63.384C210.766 63.384 210.445 63.4577 210.142 63.605C209.847 63.7523 209.609 63.956 209.427 64.216L208.426 63.449C208.721 63.0417 209.102 62.7253 209.57 62.5C210.038 62.2747 210.558 62.162 211.13 62.162C212.092 62.162 212.833 62.4003 213.353 62.877C213.873 63.345 214.133 64.008 214.133 64.866V69H212.729V68.207H212.664C212.473 68.493 212.205 68.7313 211.858 68.922C211.511 69.1127 211.113 69.208 210.662 69.208ZM210.909 68.025C211.256 68.025 211.568 67.9427 211.845 67.778C212.122 67.6133 212.339 67.3923 212.495 67.115C212.651 66.8377 212.729 66.5387 212.729 66.218C212.53 66.1053 212.296 66.0143 212.027 65.945C211.767 65.8757 211.494 65.841 211.208 65.841C210.671 65.841 210.276 65.9493 210.025 66.166C209.774 66.374 209.648 66.647 209.648 66.985C209.648 67.2883 209.765 67.5397 209.999 67.739C210.233 67.9297 210.536 68.025 210.909 68.025ZM215.691 62.37H217.056V63.241H217.121C217.312 62.929 217.594 62.6733 217.966 62.474C218.348 62.266 218.751 62.162 219.175 62.162C219.981 62.162 220.592 62.4003 221.008 62.877C221.433 63.345 221.645 63.9863 221.645 64.801V69H220.215V64.996C220.215 64.476 220.085 64.0947 219.825 63.852C219.574 63.6093 219.223 63.488 218.772 63.488C218.452 63.488 218.166 63.579 217.914 63.761C217.663 63.9343 217.468 64.1683 217.329 64.463C217.191 64.7577 217.121 65.074 217.121 65.412V69H215.691V62.37ZM230.679 69.208C229.777 69.208 228.954 68.9957 228.209 68.571C227.463 68.1463 226.878 67.5613 226.454 66.816C226.029 66.0707 225.817 65.2473 225.817 64.346C225.817 63.4447 226.029 62.6213 226.454 61.876C226.878 61.1307 227.463 60.5457 228.209 60.121C228.954 59.6963 229.777 59.484 230.679 59.484C231.381 59.484 232.018 59.614 232.59 59.874C233.17 60.134 233.682 60.511 234.124 61.005L233.084 62.006C232.763 61.6247 232.408 61.343 232.018 61.161C231.628 60.9703 231.181 60.875 230.679 60.875C230.055 60.875 229.483 61.018 228.963 61.304C228.451 61.59 228.044 61.9973 227.741 62.526C227.437 63.046 227.286 63.6527 227.286 64.346C227.286 65.0393 227.437 65.6503 227.741 66.179C228.044 66.699 228.451 67.102 228.963 67.388C229.483 67.674 230.055 67.817 230.679 67.817C231.719 67.817 232.603 67.3837 233.331 66.517L234.384 67.531C233.933 68.0597 233.391 68.4713 232.759 68.766C232.126 69.0607 231.433 69.208 230.679 69.208ZM238.628 69.208C237.961 69.208 237.363 69.0563 236.834 68.753C236.306 68.441 235.894 68.0163 235.599 67.479C235.305 66.9417 235.157 66.3437 235.157 65.685C235.157 65.0263 235.305 64.4283 235.599 63.891C235.894 63.3537 236.306 62.9333 236.834 62.63C237.363 62.318 237.961 62.162 238.628 62.162C239.296 62.162 239.894 62.318 240.422 62.63C240.951 62.942 241.363 63.3667 241.657 63.904C241.952 64.4413 242.099 65.035 242.099 65.685C242.099 66.3437 241.952 66.9417 241.657 67.479C241.363 68.0163 240.951 68.441 240.422 68.753C239.894 69.0563 239.296 69.208 238.628 69.208ZM238.628 67.895C238.992 67.895 239.33 67.8083 239.642 67.635C239.954 67.453 240.201 67.1973 240.383 66.868C240.574 66.53 240.669 66.1357 240.669 65.685C240.669 65.2343 240.574 64.8443 240.383 64.515C240.201 64.1857 239.954 63.9343 239.642 63.761C239.33 63.579 238.992 63.488 238.628 63.488C238.264 63.488 237.926 63.579 237.614 63.761C237.302 63.9343 237.051 64.1857 236.86 64.515C236.678 64.8443 236.587 65.2343 236.587 65.685C236.587 66.1357 236.678 66.53 236.86 66.868C237.051 67.1973 237.302 67.453 237.614 67.635C237.926 67.8083 238.264 67.895 238.628 67.895ZM246.252 69.208C245.654 69.208 245.112 69.0563 244.627 68.753C244.142 68.4497 243.756 68.0337 243.47 67.505C243.193 66.9677 243.054 66.361 243.054 65.685C243.054 65.009 243.193 64.4067 243.47 63.878C243.756 63.3407 244.142 62.9203 244.627 62.617C245.112 62.3137 245.654 62.162 246.252 62.162C246.72 62.162 247.14 62.266 247.513 62.474C247.886 62.682 248.167 62.9377 248.358 63.241H248.423L248.358 62.305V59.692H249.788V69H248.423V68.142H248.358C248.167 68.4367 247.886 68.688 247.513 68.896C247.14 69.104 246.72 69.208 246.252 69.208ZM246.46 67.895C246.807 67.895 247.127 67.804 247.422 67.622C247.725 67.44 247.968 67.18 248.15 66.842C248.332 66.504 248.423 66.1183 248.423 65.685C248.423 65.2517 248.332 64.8703 248.15 64.541C247.968 64.203 247.725 63.943 247.422 63.761C247.127 63.579 246.807 63.488 246.46 63.488C246.113 63.488 245.788 63.579 245.485 63.761C245.182 63.943 244.939 64.203 244.757 64.541C244.575 64.8703 244.484 65.2517 244.484 65.685C244.484 66.1183 244.575 66.504 244.757 66.842C244.939 67.18 245.182 67.44 245.485 67.622C245.788 67.804 246.113 67.895 246.46 67.895ZM252.273 61.408C252.004 61.408 251.775 61.317 251.584 61.135C251.402 60.9443 251.311 60.7147 251.311 60.446C251.311 60.1773 251.402 59.952 251.584 59.77C251.775 59.5793 252.004 59.484 252.273 59.484C252.542 59.484 252.767 59.5793 252.949 59.77C253.14 59.952 253.235 60.1773 253.235 60.446C253.235 60.7147 253.14 60.9443 252.949 61.135C252.767 61.317 252.542 61.408 252.273 61.408ZM251.558 62.37H252.988V69H251.558V62.37ZM254.768 62.37H256.133V63.241H256.198C256.388 62.929 256.67 62.6733 257.043 62.474C257.424 62.266 257.827 62.162 258.252 62.162C259.058 62.162 259.669 62.4003 260.085 62.877C260.509 63.345 260.722 63.9863 260.722 64.801V69H259.292V64.996C259.292 64.476 259.162 64.0947 258.902 63.852C258.65 63.6093 258.299 63.488 257.849 63.488C257.528 63.488 257.242 63.579 256.991 63.761C256.739 63.9343 256.544 64.1683 256.406 64.463C256.267 64.7577 256.198 65.074 256.198 65.412V69H254.768V62.37ZM265.26 72.016C264.446 72.016 263.77 71.8297 263.232 71.457C262.704 71.0843 262.348 70.6423 262.166 70.131L263.505 69.572C263.644 69.9187 263.865 70.196 264.168 70.404C264.48 70.6207 264.844 70.729 265.26 70.729C265.867 70.729 266.339 70.547 266.677 70.183C267.024 69.8277 267.197 69.325 267.197 68.675V68.064H267.119C266.903 68.376 266.612 68.623 266.248 68.805C265.893 68.9783 265.481 69.065 265.013 69.065C264.459 69.065 263.943 68.922 263.466 68.636C262.99 68.35 262.608 67.947 262.322 67.427C262.045 66.8983 261.906 66.296 261.906 65.62C261.906 64.944 262.045 64.346 262.322 63.826C262.608 63.2973 262.99 62.89 263.466 62.604C263.943 62.3093 264.459 62.162 265.013 62.162C265.473 62.162 265.884 62.253 266.248 62.435C266.612 62.617 266.903 62.864 267.119 63.176H267.197V62.37H268.562V68.636C268.562 69.3553 268.424 69.9663 268.146 70.469C267.869 70.9803 267.479 71.366 266.976 71.626C266.482 71.886 265.91 72.016 265.26 72.016ZM265.273 67.765C265.62 67.765 265.941 67.6827 266.235 67.518C266.53 67.3447 266.764 67.0977 266.937 66.777C267.111 66.4477 267.197 66.062 267.197 65.62C267.197 64.944 267.011 64.4197 266.638 64.047C266.274 63.6657 265.819 63.475 265.273 63.475C264.918 63.475 264.593 63.5617 264.298 63.735C264.004 63.8997 263.77 64.1423 263.596 64.463C263.423 64.7837 263.336 65.1693 263.336 65.62C263.336 66.0707 263.423 66.4563 263.596 66.777C263.77 67.0977 264.004 67.3447 264.298 67.518C264.593 67.6827 264.918 67.765 265.273 67.765Z" fill="white"/>
</svg>
